<?xml version="1.0" encoding="UTF-8" standalone="no"?>
<!-- Created with Inkscape (http://www.inkscape.org/) -->

<svg
   xmlns:dc="http://purl.org/dc/elements/1.1/"
   xmlns:cc="http://creativecommons.org/ns#"
   xmlns:rdf="http://www.w3.org/1999/02/22-rdf-syntax-ns#"
   xmlns:svg="http://www.w3.org/2000/svg"
   xmlns="http://www.w3.org/2000/svg"
   xmlns:sodipodi="http://sodipodi.sourceforge.net/DTD/sodipodi-0.dtd"
   xmlns:inkscape="http://www.inkscape.org/namespaces/inkscape"
   width="18.314289mm"
   height="18.314289mm"
   viewBox="0 0 64.893152 64.893151"
   id="svg7868"
   version="1.1"
   inkscape:version="0.91 r13725"
   sodipodi:docname="d-app.svg">
  <defs
     id="defs7870" />
  <sodipodi:namedview
     id="base"
     pagecolor="#ffffff"
     bordercolor="#666666"
     borderopacity="1.0"
     inkscape:pageopacity="0.0"
     inkscape:pageshadow="2"
     inkscape:zoom="5.6"
     inkscape:cx="-48.581262"
     inkscape:cy="40.446913"
     inkscape:document-units="px"
     inkscape:current-layer="layer1"
     showgrid="false"
     fit-margin-top="0"
     fit-margin-left="0"
     fit-margin-right="0"
     fit-margin-bottom="0"
     inkscape:window-width="1600"
     inkscape:window-height="837"
     inkscape:window-x="-8"
     inkscape:window-y="-8"
     inkscape:window-maximized="1" />
  <metadata
     id="metadata7873">
    <rdf:RDF>
      <cc:Work
         rdf:about="">
        <dc:format>image/svg+xml</dc:format>
        <dc:type
           rdf:resource="http://purl.org/dc/dcmitype/StillImage" />
        <dc:title />
      </cc:Work>
    </rdf:RDF>
  </metadata>
  <g
     inkscape:label="Layer 1"
     inkscape:groupmode="layer"
     id="layer1"
     transform="translate(-687.87862,-1513.4481)">
    <g
       transform="matrix(1.193362,0,0,1.193362,122.56874,1325.4926)"
       style="display:inline"
       id="g7197"
       inkscape:export-xdpi="90.004784"
       inkscape:export-ydpi="90.004784">
      <path
         inkscape:export-ydpi="90.004784"
         inkscape:export-xdpi="90.004784"
         sodipodi:nodetypes="ssssssssscccccscsss"
         inkscape:connector-curvature="0"
         d="m 483.38155,157.50085 c -0.74677,-1e-5 -1.28988,0.5431 -1.28988,1.28987 l 0,51.79868 c 0,0.74677 0.5431,1.28987 1.28987,1.28987 l 31.43224,0 c 0.74678,0 1.28987,-0.5431 1.28987,-1.28987 l 0,-51.79868 c 0,-0.74677 -0.5431,-1.28987 -1.28987,-1.28987 z m 2.95495,4.24481 25.45445,0 -1e-5,39.0321 -25.45444,0 z m 12.72722,41.00186 c 1.90086,0 3.3944,1.49355 3.39441,3.39441 -10e-6,1.90087 -1.49354,3.3944 -3.39442,3.3944 -1.90086,0 -3.39439,-1.49353 -3.39439,-3.3944 -1e-5,-1.90086 1.49352,-3.39441 3.3944,-3.39441 z"
         style="color:#000000;clip-rule:nonzero;display:inline;overflow:visible;visibility:visible;opacity:1;isolation:auto;mix-blend-mode:normal;color-interpolation:sRGB;color-interpolation-filters:linearRGB;solid-color:#000000;solid-opacity:1;fill:#004488;fill-opacity:1;fill-rule:nonzero;stroke:none;stroke-width:1;stroke-linecap:butt;stroke-linejoin:miter;stroke-miterlimit:4;stroke-dasharray:none;stroke-dashoffset:0;stroke-opacity:1;marker:none;marker-start:none;marker-mid:none;marker-end:none;color-rendering:auto;image-rendering:auto;shape-rendering:auto;text-rendering:auto;enable-background:accumulate"
         id="path6923" />
      <rect
         inkscape:export-ydpi="90.004784"
         inkscape:export-xdpi="90.004784"
         ry="0"
         rx="0"
         y="166"
         x="489.875"
         height="5.75"
         width="18.375"
         id="rect6933"
         style="color:#000000;clip-rule:nonzero;display:inline;overflow:visible;visibility:visible;opacity:1;isolation:auto;mix-blend-mode:normal;color-interpolation:sRGB;color-interpolation-filters:linearRGB;solid-color:#000000;solid-opacity:1;fill:#004488;fill-opacity:1;fill-rule:nonzero;stroke:none;stroke-width:1;stroke-linecap:butt;stroke-linejoin:miter;stroke-miterlimit:4;stroke-dasharray:none;stroke-dashoffset:0;stroke-opacity:1;marker:none;marker-start:none;marker-mid:none;marker-end:none;color-rendering:auto;image-rendering:auto;shape-rendering:auto;text-rendering:auto;enable-background:accumulate" />
    </g>
    <path
       style="fill:#000000"
       d="M 10.525881,64.374809 C 10.171429,64.020357 10.168738,63.779571 10.168738,32.423484 l 0,-31.59418233 0.47051,-0.37010361 c 0.469392,-0.36922303 0.516292,-0.37010359 19.71236,-0.37010359 18.679148,0 19.254178,0.0099825 19.663419,0.34135581 l 0.421568,0.34135578 0.04611,31.50769594 0.04611,31.507696 -0.371572,0.472377 -0.371571,0.472377 -19.451325,0 c -19.21323,0 -19.455697,-0.0044 -19.808468,-0.357143 z m 21.602952,-2.679225 c 1.394709,-0.717716 2.208887,-2.066786 2.208887,-3.660061 0,-2.343046 -1.726732,-4.0625 -4.079696,-4.0625 -2.352965,0 -4.079696,1.719454 -4.079696,4.0625 0,3.090845 3.214476,5.068018 5.950505,3.660061 z m 13.397048,-33.392204 0,-23.392857 -15.267857,0 -15.267857,0 0,23.392857 0,23.392857 15.267857,0 15.267857,0 0,-23.392857 z"
       id="path3336"
       inkscape:connector-curvature="0"
       transform="translate(687.87862,1513.4481)" />
    <path
       style="fill:#000000"
       d="m 19.454452,13.571237 0,-3.303571 10.803572,0 10.803571,0 0,3.303571 0,3.303572 -10.803571,0 -10.803572,0 0,-3.303572 z"
       id="path3338"
       inkscape:connector-curvature="0"
       transform="translate(687.87862,1513.4481)" />
  </g>
</svg>
