<?xml version="1.0" encoding="UTF-8" standalone="no"?>
<!-- Created with Inkscape (http://www.inkscape.org/) -->

<svg
   xmlns:dc="http://purl.org/dc/elements/1.1/"
   xmlns:cc="http://creativecommons.org/ns#"
   xmlns:rdf="http://www.w3.org/1999/02/22-rdf-syntax-ns#"
   xmlns:svg="http://www.w3.org/2000/svg"
   xmlns="http://www.w3.org/2000/svg"
   xmlns:sodipodi="http://sodipodi.sourceforge.net/DTD/sodipodi-0.dtd"
   xmlns:inkscape="http://www.inkscape.org/namespaces/inkscape"
   width="18.370945mm"
   height="12.879747mm"
   viewBox="0 0 65.093901 45.6369"
   id="svg7868"
   version="1.1"
   inkscape:version="0.91 r13725"
   sodipodi:docname="d-card.svg">
  <defs
     id="defs7870" />
  <sodipodi:namedview
     id="base"
     pagecolor="#ffffff"
     bordercolor="#666666"
     borderopacity="1.0"
     inkscape:pageopacity="0.0"
     inkscape:pageshadow="2"
     inkscape:zoom="7.9195959"
     inkscape:cx="74.941805"
     inkscape:cy="32.886409"
     inkscape:document-units="px"
     inkscape:current-layer="layer1"
     showgrid="false"
     fit-margin-top="0"
     fit-margin-left="0"
     fit-margin-right="0"
     fit-margin-bottom="0"
     inkscape:window-width="1600"
     inkscape:window-height="837"
     inkscape:window-x="-8"
     inkscape:window-y="-8"
     inkscape:window-maximized="1" />
  <metadata
     id="metadata7873">
    <rdf:RDF>
      <cc:Work
         rdf:about="">
        <dc:format>image/svg+xml</dc:format>
        <dc:type
           rdf:resource="http://purl.org/dc/dcmitype/StillImage" />
        <dc:title />
      </cc:Work>
    </rdf:RDF>
  </metadata>
  <g
     inkscape:label="Layer 1"
     inkscape:groupmode="layer"
     id="layer1"
     transform="translate(31.827076,-1171.6864)">
    <path
       inkscape:export-ydpi="90.004784"
       inkscape:export-xdpi="90.004784"
       sodipodi:nodetypes="sssssssssccccccccccccccccccccccccc"
       inkscape:connector-curvature="0"
       id="path6909"
       d="m -25.478676,1171.6864 c -3.4907,0 -6.3484,2.8608 -6.3484,6.3514 l 0,32.9341 c 0,3.4907 2.8577,6.3514 6.3484,6.3514 l 52.3941,0 c 3.4907,0 6.3514,-2.8607 6.3514,-6.3514 l 0,-32.9341 c 0,-3.4906 -2.8607,-6.3514 -6.3514,-6.3514 z m 54.8949,4.0138 0.032,37.2525 -57.3155,0.051 -0.032,-37.2557 z m -14.3224,8.6076 -20.0597997,0.019 0.01,5.7309 20.0597997,-0.019 z m -25.7907,0.023 -11.4619,0.01 0.016,20.063 11.4619,-0.014 z m 34.3983,11.4329 -28.6577997,0.026 0,1.6711 28.6577997,-0.026 z m -2.8607,5.7341 -25.7906997,0.012 0,1.5957 25.7906997,-0.012 z"
       style="display:inline;fill:#004488;fill-opacity:1;fill-rule:evenodd;stroke:none;stroke-width:1" />
    <path
       style="fill:#000000"
       d="M 4.7362027,45.349667 C 2.9766897,44.844215 1.5556672,43.684058 0.74509216,42.091231 0.03535633,40.696558 0.06363128,41.506091 0.07152605,22.806547 0.07822893,6.9301543 0.09597186,5.5000189 0.29573289,4.7347808 0.84385502,2.6350526 2.6736302,0.82146208 4.8037518,0.26663583 5.4601713,0.0956603 8.6934236,0.07307684 32.515398,0.07307684 c 29.43956,0 27.613344,-0.04433216 29.112043,0.7067071 1.397682,0.70041696 2.573542,2.09393216 3.11684,3.69377836 l 0.285151,0.8396809 0.03655,16.7937858 c 0.02318,10.653712 -0.0096,17.173844 -0.08973,17.833285 -0.306064,2.519555 -2.025406,4.604976 -4.401747,5.338953 -0.799318,0.246884 -1.223308,0.250546 -28.040841,0.242153 C 10.667799,45.514576 5.1924921,45.480746 4.7362027,45.349667 Z M 61.304745,22.67524 l 0,-18.687822 -28.726213,0 -28.7262128,0 0,18.687822 0,18.687822 28.7262128,0 28.726213,0 0,-18.687822 z"
       id="path3334"
       inkscape:connector-curvature="0"
       transform="translate(-31.827076,1171.6864)" />
    <path
       style="fill:#000000"
       d="m 9.7869654,22.67524 0,-9.975256 5.6189736,0 5.618974,0 5.68e-4,8.554729 c 3.15e-4,4.705101 0.03741,9.193967 0.08243,9.975256 l 0.08186,1.420527 -5.7014,0 -5.7014006,0 0,-9.975256 z"
       id="path3336"
       inkscape:connector-curvature="0"
       transform="translate(-31.827076,1171.6864)" />
    <path
       style="fill:#000000"
       d="m 26.959559,15.477903 0,-2.777919 9.975256,0 9.975257,0 0,2.777919 0,2.77792 -9.975257,0 -9.975256,0 0,-2.77792 z"
       id="path3338"
       inkscape:connector-curvature="0"
       transform="translate(-31.827076,1171.6864)" />
    <path
       style="fill:#000000"
       d="m 26.959559,24.948083 0,-0.757614 14.268404,0 14.268405,0 0,0.757614 0,0.757615 -14.268405,0 -14.268404,0 0,-0.757615 z"
       id="path3340"
       inkscape:connector-curvature="0"
       transform="translate(-31.827076,1171.6864)" />
    <path
       style="fill:#000000"
       d="m 26.959559,30.630191 0,-0.757614 12.81631,0 12.816311,0 0,0.757614 0,0.757615 -12.816311,0 -12.81631,0 0,-0.757615 z"
       id="path3342"
       inkscape:connector-curvature="0"
       transform="translate(-31.827076,1171.6864)" />
  </g>
</svg>
