<?xml version="1.0" encoding="UTF-8" standalone="no"?>
<!-- Created with Inkscape (http://www.inkscape.org/) -->

<svg
   xmlns:dc="http://purl.org/dc/elements/1.1/"
   xmlns:cc="http://creativecommons.org/ns#"
   xmlns:rdf="http://www.w3.org/1999/02/22-rdf-syntax-ns#"
   xmlns:svg="http://www.w3.org/2000/svg"
   xmlns="http://www.w3.org/2000/svg"
   xmlns:sodipodi="http://sodipodi.sourceforge.net/DTD/sodipodi-0.dtd"
   xmlns:inkscape="http://www.inkscape.org/namespaces/inkscape"
   width="20.077894mm"
   height="20.077892mm"
   viewBox="0 0 71.142145 71.142138"
   id="svg7868"
   version="1.1"
   inkscape:version="0.91 r13725"
   sodipodi:docname="d-face.svg">
  <defs
     id="defs7870" />
  <sodipodi:namedview
     id="base"
     pagecolor="#ffffff"
     bordercolor="#666666"
     borderopacity="1.0"
     inkscape:pageopacity="0.0"
     inkscape:pageshadow="2"
     inkscape:zoom="11.2"
     inkscape:cx="54.700476"
     inkscape:cy="40.498868"
     inkscape:document-units="px"
     inkscape:current-layer="layer1"
     showgrid="false"
     fit-margin-top="0"
     fit-margin-left="0"
     fit-margin-right="0"
     fit-margin-bottom="0"
     inkscape:window-width="1600"
     inkscape:window-height="837"
     inkscape:window-x="-8"
     inkscape:window-y="-8"
     inkscape:window-maximized="1" />
  <metadata
     id="metadata7873">
    <rdf:RDF>
      <cc:Work
         rdf:about="">
        <dc:format>image/svg+xml</dc:format>
        <dc:type
           rdf:resource="http://purl.org/dc/dcmitype/StillImage" />
        <dc:title />
      </cc:Work>
    </rdf:RDF>
  </metadata>
  <g
     inkscape:label="Layer 1"
     inkscape:groupmode="layer"
     id="layer1"
     transform="translate(167.71393,-496.79113)">
    <path
       inkscape:export-ydpi="90.004784"
       inkscape:export-xdpi="90.004784"
       style="color:#000000;clip-rule:nonzero;display:inline;overflow:visible;visibility:visible;opacity:1;isolation:auto;mix-blend-mode:normal;color-interpolation:sRGB;color-interpolation-filters:linearRGB;solid-color:#000000;solid-opacity:1;fill:#004488;fill-opacity:1;fill-rule:nonzero;stroke:none;stroke-width:1;stroke-linecap:butt;stroke-linejoin:miter;stroke-miterlimit:4;stroke-dasharray:none;stroke-dashoffset:0;stroke-opacity:1;color-rendering:auto;image-rendering:auto;shape-rendering:auto;text-rendering:auto;enable-background:accumulate"
       inkscape:connector-curvature="0"
       d="m -132.14287,496.79113 c 10.37497,0 14.82135,5.92858 13.32494,18.37227 1.33691,0.76665 2.23742,2.20803 2.23742,3.85965 0,2.021 -1.34834,3.7271 -3.19466,4.26778 -0.77133,2.74908 -1.96914,5.1827 -3.47492,7.12956 l 0,9.35239 c 4.94045,0.98812 8.89277,1.48219 14.82134,4.44638 5.92839,2.96438 7.90464,5.68164 11.856962,9.63396 l 0,14.08015 -71.142142,0 0,-14.08015 c 3.95232,-3.95232 5.92857,-6.66958 11.85696,-9.63396 5.92857,-2.96419 9.88089,-3.45826 14.82134,-4.44638 l 0,-9.35239 c -1.50578,-1.94686 -2.70359,-4.38048 -3.47492,-7.12956 -1.84633,-0.54068 -3.19466,-2.24678 -3.19466,-4.26778 0,-1.65162 0.90051,-3.093 2.23742,-3.85965 -1.49642,-12.44369 2.94997,-18.37227 13.32492,-18.37227 z"
       id="path6905" />
    <path
       style="fill:#000000"
       d="m 0.05761847,64.102267 0,-7.041004 2.52232143,-2.548155 c 1.3872768,-1.401485 2.8893169,-2.848424 3.3378669,-3.215421 3.713584,-3.038392 8.6879092,-5.474187 13.9941292,-6.852554 1.034068,-0.268614 6.551516,-1.426863 6.797022,-1.426863 0.0248,0 0.04509,-2.095325 0.04509,-4.65628 l 0,-4.65628 -0.665086,-0.991041 C 24.993073,31.08169 24.130378,29.280725 23.48712,27.283051 l -0.251118,-0.779862 -0.659055,-0.312984 c -1.203603,-0.571588 -2.170196,-1.787303 -2.435377,-3.063052 -0.230164,-1.107289 0.04253,-2.430849 0.699196,-3.393624 0.312338,-0.457938 1.08872,-1.193381 1.352704,-1.281376 0.07587,-0.02529 0.07349,-0.261414 -0.0093,-0.92588 -0.06433,-0.516081 -0.112531,-1.964217 -0.114384,-3.436574 -0.0034,-2.733202 0.07647,-3.527279 0.541784,-5.3838704 0.852041,-3.3995993 2.808853,-5.8951963 5.684158,-7.2492245 2.094811,-0.98648155 4.18883,-1.38265783 7.315387,-1.38402973 8.147058,-0.0035748 12.534928,3.66859073 13.388403,11.20462463 0.145254,1.282569 0.140175,4.217302 -0.0101,5.83722 -0.114537,1.234651 -0.112611,1.287257 0.05047,1.378178 0.317594,0.177066 1.101237,0.974182 1.365429,1.388906 0.921508,1.446567 0.87819,3.408023 -0.107062,4.847749 -0.440951,0.64435 -1.301744,1.3396 -1.938629,1.565801 l -0.447046,0.158776 -0.222882,0.730718 c -0.637091,2.08869 -1.839783,4.511165 -3.0268,6.096606 l -0.230242,0.307525 0,4.714796 c 0,2.593138 0.01287,4.714796 0.02861,4.714796 0.225526,0 5.797046,1.170089 6.791832,1.426369 4.420286,1.138771 9.042119,3.239973 12.375989,5.626435 1.487769,1.06498 2.57058,2.038817 5.063975,4.554339 l 2.43376,2.455358 0.0011,7.03125 0.0011,7.03125 -35.535714,0 -35.53571453,0 0,-7.041004 z"
       id="path3342"
       inkscape:connector-curvature="0"
       transform="translate(-167.71393,496.79113)" />
  </g>
</svg>
