<?xml version="1.0" encoding="UTF-8" standalone="no"?>
<svg
   xmlns:dc="http://purl.org/dc/elements/1.1/"
   xmlns:cc="http://creativecommons.org/ns#"
   xmlns:rdf="http://www.w3.org/1999/02/22-rdf-syntax-ns#"
   xmlns:svg="http://www.w3.org/2000/svg"
   xmlns="http://www.w3.org/2000/svg"
   xmlns:sodipodi="http://sodipodi.sourceforge.net/DTD/sodipodi-0.dtd"
   xmlns:inkscape="http://www.inkscape.org/namespaces/inkscape"
   version="1.1"
   width="76"
   height="76"
   viewBox="0 0 76.00 76.00"
   enable-background="new 0 0 76.00 76.00"
   xml:space="preserve"
   id="svg2"
   inkscape:version="0.91 r13725"
   sodipodi:docname="d-face.delete.svg"><metadata
     id="metadata10"><rdf:RDF><cc:Work
         rdf:about=""><dc:format>image/svg+xml</dc:format><dc:type
           rdf:resource="http://purl.org/dc/dcmitype/StillImage" /></cc:Work></rdf:RDF></metadata><defs
     id="defs8" /><sodipodi:namedview
     pagecolor="#ffffff"
     bordercolor="#666666"
     borderopacity="1"
     objecttolerance="10"
     gridtolerance="10"
     guidetolerance="10"
     inkscape:pageopacity="0"
     inkscape:pageshadow="2"
     inkscape:window-width="1600"
     inkscape:window-height="837"
     id="namedview6"
     showgrid="false"
     inkscape:zoom="8.7830105"
     inkscape:cx="51.681191"
     inkscape:cy="43.910322"
     inkscape:window-x="-8"
     inkscape:window-y="-8"
     inkscape:window-maximized="1"
     inkscape:current-layer="svg2" /><path
     style="color:#000000;clip-rule:nonzero;display:inline;overflow:visible;visibility:visible;opacity:1;isolation:auto;mix-blend-mode:normal;color-interpolation:sRGB;color-interpolation-filters:linearRGB;solid-color:#000000;solid-opacity:1;fill:#004488;fill-opacity:1;fill-rule:nonzero;stroke:none;stroke-width:1;stroke-linecap:butt;stroke-linejoin:miter;stroke-miterlimit:4;stroke-dasharray:none;stroke-dashoffset:0;stroke-opacity:1;color-rendering:auto;image-rendering:auto;shape-rendering:auto;text-rendering:auto;enable-background:accumulate"
     d="m 1.3417746,50.066814 5.9862821,-5.634811 9.9769563,9.391184 9.976958,-9.391184 5.986282,5.634811 -9.976957,9.391183 9.976957,9.39118 -5.986282,5.634811 -9.976958,-9.391182 -9.9769563,9.391182 -5.9862821,-5.634811 9.9771344,-9.39118 -9.9771344,-9.391183 z M 40.848774,1.9322036 c 9.876794,0 14.109679,5.3125374 12.685114,16.4632154 1.272716,0.686987 2.129987,1.978591 2.129987,3.458593 0,1.810997 -1.283588,3.339817 -3.041262,3.824314 -0.734293,2.463428 -1.874589,4.644172 -3.308066,6.388737 l 0,8.380579 c 4.703226,0.88545 8.465772,1.328177 14.109679,3.984361 5.64373,2.656353 7.525093,5.09126 11.287638,8.632897 l 0,12.617089 -39.164625,0 -6.612213,-6.223992 9.977136,-9.391183 -9.757382,-9.027808 3.22822,-0.591364 0,-8.380579 c -1.433477,-1.744565 -2.573771,-3.925309 -3.308066,-6.388737 -1.757675,-0.484497 -3.041263,-2.013317 -3.041263,-3.824314 0,-1.480002 0.85727,-2.771606 2.129988,-3.458593 C 26.739092,7.244741 30.97198,1.9322036 40.848774,1.9322036 Z M 18.27332,44.432003 c 2.209833,-1.03996 4.131298,-1.740703 5.933704,-2.261438 l -6.818956,6.418429 -2.485728,-2.339785 3.37098,-1.817206 z"
     id="path4"
     inkscape:connector-curvature="0" /><path
     style="fill:#000000"
     d="m 32.364407,62.51027 -3.220339,-3.026175 3.542373,-3.331785 c 1.948305,-1.832479 4.194492,-3.941592 4.991526,-4.686917 l 1.449152,-1.355135 -1.449152,-1.369839 c -0.797034,-0.753414 -2.959721,-2.769121 -4.805971,-4.47935 l -3.356818,-3.109504 1.424614,-0.281293 1.424615,-0.281297 0.08971,-4.236559 0.08971,-4.23656 -1.086016,-1.711318 c -0.597309,-0.941225 -1.344384,-2.396183 -1.660168,-3.23324 -0.401744,-1.064915 -0.905096,-1.717183 -1.676262,-2.172182 -1.296406,-0.764898 -2.163798,-2.561635 -1.873884,-3.881607 0.109602,-0.499013 0.579744,-1.317264 1.04476,-1.818335 0.809037,-0.871767 0.847276,-1.077623 0.887066,-4.775446 0.05154,-4.7897995 0.750237,-6.9009108 3.042627,-9.1933007 2.415395,-2.4153952 4.38469,-3.029516 9.676352,-3.0175508 4.869924,0.011012 6.815965,0.5238776 9.082921,2.3937432 2.453229,2.0235095 4.049124,7.1631463 3.589537,11.5602343 -0.192367,1.840468 -0.152957,1.990901 0.808421,3.08585 1.738717,1.98029 1.275236,4.525348 -1.076839,5.913106 -0.691017,0.40771 -1.143701,0.972503 -1.281189,1.598482 -0.116935,0.532402 -0.783515,1.91458 -1.481289,3.071505 l -1.268681,2.1035 0,4.290519 0,4.290515 3.300847,0.595161 c 5.732948,1.03368 11.490154,3.275671 15.216102,5.925494 0.885593,0.629818 2.80458,2.243504 4.264415,3.585967 l 2.654242,2.440843 0.0026,6.199153 0.0026,6.199152 -19.563559,-0.01481 -19.563559,-0.01485 -3.220339,-3.026175 -8.1e-5,3e-6 z"
     id="path3333"
     inkscape:connector-curvature="0" /><path
     style="fill:#000000"
     d="M 4.4162813,71.5303 1.5867993,68.880883 6.5095016,64.16953 11.432204,59.458178 6.5192786,54.702818 1.6063531,49.947457 4.478086,47.289444 7.3498191,44.631432 10.840164,47.914636 c 1.91969,1.805761 4.172316,3.932088 5.005836,4.725169 l 1.51549,1.441966 2.992984,-2.86496 c 1.646141,-1.575728 3.868481,-3.703586 4.938532,-4.728574 l 1.945547,-1.863615 2.884961,2.729957 2.884961,2.729958 -1.610169,1.531526 c -0.885594,0.842339 -3.120135,2.95189 -4.965648,4.687891 l -3.355478,3.156365 3.516495,3.307035 c 1.934072,1.818869 4.168614,3.921425 4.965648,4.672347 l 1.449152,1.365314 -2.873638,2.743169 -2.873639,2.743169 -1.795853,-1.718486 C 24.477626,71.6277 22.251372,69.508284 20.518113,67.863053 l -3.151378,-2.991327 -3.488637,3.242171 c -1.918751,1.783195 -3.674826,3.466515 -3.9023893,3.740712 -0.2275634,0.274198 -0.934895,0.909518 -1.5718485,1.411824 L 7.2457632,74.179716 4.4162813,71.5303 Z"
     id="path3335"
     inkscape:connector-curvature="0" /><path
     style="fill:#000000"
     d="m 16.164474,47.189427 -1.06434,-0.967964 3.318577,-1.567512 c 5.145967,-2.430668 5.329845,-2.361381 2.048748,0.771989 -1.584,1.512682 -2.960695,2.746083 -3.059322,2.740891 -0.09863,-0.0052 -0.658276,-0.445024 -1.243663,-0.977404 z"
     id="path3337"
     inkscape:connector-curvature="0" /><path
     style="fill:#000000"
     d=""
     id="path3336"
     inkscape:connector-curvature="0" /><path
     style="fill:#000000"
     d="m 21.964729,44.028088 c 0,-0.05517 0.153706,-0.247567 0.341568,-0.427551 0.348915,-0.334282 0.455006,-0.733032 0.199249,-0.748889 -0.173341,-0.01075 0.928242,-0.425357 1.163136,-0.437776 0.09179,-0.0049 -0.113149,0.276954 -0.455424,0.62624 -0.683019,0.697008 -1.248529,1.144502 -1.248529,0.987976 z"
     id="path3338"
     inkscape:connector-curvature="0" /><path
     style="fill:#000000"
     d=""
     id="path3340"
     inkscape:connector-curvature="0" /></svg>