<?xml version="1.0" encoding="UTF-8" standalone="no"?>
<svg
   xmlns:dc="http://purl.org/dc/elements/1.1/"
   xmlns:cc="http://creativecommons.org/ns#"
   xmlns:rdf="http://www.w3.org/1999/02/22-rdf-syntax-ns#"
   xmlns:svg="http://www.w3.org/2000/svg"
   xmlns="http://www.w3.org/2000/svg"
   xmlns:sodipodi="http://sodipodi.sourceforge.net/DTD/sodipodi-0.dtd"
   xmlns:inkscape="http://www.inkscape.org/namespaces/inkscape"
   version="1.1"
   width="76"
   height="76"
   viewBox="0 0 76.00 76.00"
   enable-background="new 0 0 76.00 76.00"
   xml:space="preserve"
   id="svg2"
   inkscape:version="0.91 r13725"
   sodipodi:docname="d-group.svg"><metadata
     id="metadata10"><rdf:RDF><cc:Work
         rdf:about=""><dc:format>image/svg+xml</dc:format><dc:type
           rdf:resource="http://purl.org/dc/dcmitype/StillImage" /></cc:Work></rdf:RDF></metadata><defs
     id="defs8" /><sodipodi:namedview
     pagecolor="#ffffff"
     bordercolor="#666666"
     borderopacity="1"
     objecttolerance="10"
     gridtolerance="10"
     guidetolerance="10"
     inkscape:pageopacity="0"
     inkscape:pageshadow="2"
     inkscape:window-width="1600"
     inkscape:window-height="837"
     id="namedview6"
     showgrid="false"
     inkscape:zoom="8.7830105"
     inkscape:cx="39.521939"
     inkscape:cy="39.566535"
     inkscape:window-x="-8"
     inkscape:window-y="-8"
     inkscape:window-maximized="1"
     inkscape:current-layer="svg2" /><path
     d="m 38.161017,22.234829 c 6.701974,0 9.574331,3.753498 8.607784,11.632313 0.863505,0.485474 1.445321,1.39796 1.445321,2.443727 0,1.279616 -0.871054,2.359806 -2.063709,2.702183 -0.498221,1.74048 -1.27204,3.281394 -2.244827,4.513925 l 0,5.921559 c 3.191492,0.625583 5.744714,0.938374 9.57433,2.815265 3.829762,1.876748 5.106445,3.597171 7.659522,6.099646 l 0,8.914769 -45.956843,0 -1.44e-4,-8.914769 c 2.553222,-2.502475 3.82976,-4.222898 7.659522,-6.099646 3.829761,-1.876891 6.382983,-2.189682 9.574475,-2.815265 l 0,-5.921559 c -0.972788,-1.232531 -1.746605,-2.773445 -2.244827,-4.514068 -1.192656,-0.342234 -2.063708,-1.422424 -2.063708,-2.70204 0,-1.045767 0.581669,-1.958253 1.445321,-2.443727 -0.966547,-7.878815 1.905664,-11.632313 8.607783,-11.632313 z M 20.544174,50.574672 c -3.174802,1.555848 -2.871632,1.315031 -4.7191,3.190641 l -14.4295604,-1.42e-4 0,-8.914769 c 2.5530773,-2.502472 3.8297608,-4.222897 7.6593769,-6.099646 3.8297605,-1.87689 6.3829845,-2.189681 9.5744765,-2.815265 l 0,-5.921557 C 17.656578,28.781401 16.882761,27.24063 16.384539,25.500008 15.191883,25.15763 14.320831,24.07744 14.320831,22.797825 c 0,-1.045766 0.581814,-1.958252 1.445322,-2.443727 -0.966548,-7.878675 1.905663,-11.6323132 8.607782,-11.6323132 6.286184,0 9.203095,4.9914342 8.743332,11.9024322 -4.14759,1.610612 -6.445533,3.862739 -6.43639,10.427661 -0.863507,0.485473 -1.445177,1.398101 -1.445177,2.443727 0,1.279614 0.296496,2.922942 1.489151,3.265179 0.49822,1.740622 1.272039,3.281536 2.244826,4.514067 l 0,6.484554 c -3.191492,0.625584 -4.595742,0.938375 -8.425503,2.815267 z m 35.233686,0 C 51.948099,48.69778 50.543848,48.384989 47.352356,47.759405 l 0,-6.484554 c 0.972789,-1.232531 1.746606,-2.773445 2.244828,-4.514067 1.192656,-0.342237 1.48915,-1.985565 1.48915,-3.265179 0,-1.045626 -0.581669,-1.958254 -1.445177,-2.443727 0.0092,-6.564922 -2.288801,-8.817049 -6.43639,-10.427661 -0.459907,-6.911141 2.457148,-11.9024322 8.743332,-11.9024322 6.701973,0 9.574331,3.7534972 8.607784,11.6323132 0.863505,0.485475 1.445321,1.397961 1.445321,2.443727 0,1.279615 -0.871054,2.359805 -2.063708,2.70204 -0.498222,1.740622 -1.272041,3.281536 -2.244828,4.514069 l 0,5.921557 c 3.191492,0.625584 5.74457,0.938375 9.57433,2.815265 3.829762,1.876749 5.106444,3.597174 7.659522,6.099646 l 0,8.914769 -14.429559,0 C 58.649491,51.889703 58.952663,52.13052 55.77786,50.574672 Z"
     id="path4"
     inkscape:connector-curvature="0"
     style="color:#000000;clip-rule:nonzero;display:inline;overflow:visible;visibility:visible;opacity:1;isolation:auto;mix-blend-mode:normal;color-interpolation:sRGB;color-interpolation-filters:linearRGB;solid-color:#000000;solid-opacity:1;fill:#004488;fill-opacity:1;fill-rule:nonzero;stroke:none;stroke-width:1;stroke-linecap:butt;stroke-linejoin:miter;stroke-miterlimit:4;stroke-dasharray:none;stroke-dashoffset:0;stroke-opacity:1;color-rendering:auto;image-rendering:auto;shape-rendering:auto;text-rendering:auto;enable-background:accumulate" /><path
     style="fill:#000000"
     d="m 15.270573,62.762083 0,-4.480862 1.451666,-1.413478 c 1.761178,-1.714847 2.646079,-2.459573 3.842646,-3.233942 2.70258,-1.749 5.651626,-2.896533 9.341471,-3.634955 1.12428,-0.224995 2.159427,-0.434444 2.300324,-0.465442 l 0.256176,-0.05636 0,-2.971244 0,-2.971243 -0.499057,-0.755378 c -0.639762,-0.968348 -1.103103,-1.898619 -1.491504,-2.994554 -0.249111,-0.702907 -0.36313,-0.886399 -0.585472,-0.942203 -0.385167,-0.09667 -1.155415,-0.819002 -1.414163,-1.326188 -0.554513,-1.086937 -0.337884,-2.289023 0.572267,-3.175538 l 0.552167,-0.537828 -0.117896,-1.338131 c -0.13992,-1.588122 0.0098,-3.539596 0.371554,-4.841881 0.879745,-3.167288 3.147823,-4.88342 6.957436,-5.264316 3.307285,-0.330672 6.220455,0.459087 7.909667,2.144307 0.774521,0.772689 1.504688,2.101483 1.807259,3.288933 0.313061,1.228622 0.445323,3.170123 0.318008,4.668104 l -0.116122,1.366274 0.482021,0.455424 c 0.879282,0.83077 1.15482,1.820628 0.80226,2.882088 -0.221028,0.665451 -0.912334,1.422865 -1.489003,1.631391 -0.338212,0.122299 -0.416073,0.235639 -0.687101,1.000198 -0.378715,1.068344 -0.96906,2.253318 -1.546731,3.104681 l -0.439972,0.648426 0,2.964339 0,2.964339 0.256176,0.05405 c 0.140897,0.02973 1.152794,0.233919 2.248659,0.453758 3.815106,0.765339 6.871846,1.961436 9.563919,3.742347 1.127076,0.745605 1.804401,1.323869 3.614934,3.086242 l 1.508594,1.468466 0,4.480519 0,4.48052 -22.885091,0 -22.885092,0 0,-4.480864 z"
     id="path3333"
     inkscape:connector-curvature="0" /><path
     style="fill:#000000"
     d="m 1.4939759,49.277502 0,-4.416559 1.7932347,-1.769203 c 2.4807777,-2.44753 3.47639,-3.169281 6.1197695,-4.436415 2.2898719,-1.097676 4.2150799,-1.693878 7.6283639,-2.362363 l 1.593986,-0.312179 0.03032,-2.96656 0.03032,-2.966559 -0.508784,-0.758731 c -0.599559,-0.8941 -1.127078,-1.968475 -1.479512,-3.013263 -0.227558,-0.674592 -0.305012,-0.779353 -0.750306,-1.014831 -0.641811,-0.339397 -0.871413,-0.553187 -1.204487,-1.121535 -0.699549,-1.193691 -0.332687,-2.776179 0.831676,-3.587505 0.244962,-0.170689 0.24814,-0.2024 0.130912,-1.306364 -0.209681,-1.974633 0.03747,-4.421685 0.597868,-5.919478 0.30022,-0.80241 1.008576,-1.877384 1.626992,-2.469065 1.443313,-1.3809111 3.439282,-2.0284666 6.273955,-2.0354684 1.803812,-0.00446 2.819012,0.1997925 4.155751,0.8360947 1.688043,0.8035267 3.235923,2.5917447 3.938658,4.5502087 0.546078,1.521876 0.979022,4.71385 0.800518,5.902002 -0.07596,0.505571 -0.09092,0.520939 -0.770236,0.790761 -1.591242,0.63204 -3.131125,1.792326 -3.976732,2.996426 -1.008675,1.436303 -1.531473,3.250817 -1.663457,5.773492 l -0.0685,1.309346 -0.382655,0.321487 c -0.21046,0.176817 -0.515549,0.548254 -0.677975,0.825413 -0.727889,1.242048 -0.309033,3.765675 0.740423,4.461079 0.290308,0.192368 0.443361,0.421658 0.608111,0.911015 0.342893,1.018489 0.938678,2.244304 1.504409,3.095286 l 0.516719,0.777256 0,3.188197 0,3.188198 -0.540816,0.08039 c -1.156359,0.171876 -3.596469,0.85779 -4.883902,1.372861 -2.09594,0.838536 -5.376029,2.466328 -6.131683,3.042937 -0.375726,0.2867 -0.885668,0.73028 -1.133205,0.985733 l -0.450068,0.46446 -7.1498319,0 -7.1498322,0 0,-4.41656 z"
     id="path3335"
     inkscape:connector-curvature="0" /><path
     style="fill:#000000"
     d="m 59.646936,52.85263 c -0.654249,-0.616618 -1.197209,-0.99424 -2.106339,-1.464934 -3.547905,-1.836895 -6.289596,-2.892887 -8.824772,-3.398954 l -1.33781,-0.267052 0,-3.175199 0,-3.175201 0.499057,-0.755377 c 0.632369,-0.957159 1.099303,-1.890651 1.488386,-2.975572 0.236411,-0.659208 0.387904,-0.905846 0.66438,-1.081634 1.001611,-0.636846 1.43697,-3.064062 0.78042,-4.351008 -0.130029,-0.254876 -0.443124,-0.640348 -0.695768,-0.856601 l -0.459351,-0.393188 0,-0.863225 c 0,-3.403992 -1.155209,-6.20176 -3.217151,-7.791531 -0.683339,-0.526859 -2.712097,-1.627384 -2.999993,-1.627384 -0.407902,0 -0.252946,-3.363521 0.245475,-5.328355 0.151834,-0.598545 0.512091,-1.573452 0.800573,-2.16646 0.436667,-0.897622 0.689557,-1.244234 1.509993,-2.06961 1.654668,-1.6646289 3.303413,-2.2877085 6.052082,-2.2871507 1.621576,3.291e-4 2.786528,0.1689886 3.920764,0.5676408 3.316333,1.1655969 4.923625,4.2738109 4.68696,9.0637399 -0.04022,0.814071 -0.0976,1.582601 -0.127504,1.707842 -0.0401,0.167951 0.06081,0.306557 0.38451,0.528133 0.499718,0.342061 0.929726,1.127397 1.01071,1.845883 0.117481,1.042291 -0.497092,2.151317 -1.486663,2.682754 -0.493585,0.265073 -0.572122,0.363662 -0.778896,0.977772 -0.351569,1.044137 -0.915857,2.194037 -1.503265,3.063332 l -0.531374,0.786373 0.03032,2.966559 0.03032,2.96656 1.593987,0.312179 c 2.297058,0.449875 3.468207,0.746503 4.952005,1.254243 1.665738,0.569998 4.197529,1.806072 5.536623,2.703097 1.128154,0.755722 3.466194,2.844661 4.511923,4.031211 l 0.654673,0.742833 0,4.334858 0,4.334858 -7.201403,-0.0053 -7.201404,-0.0053 -0.881467,-0.830768 0,-7e-6 z"
     id="path3337"
     inkscape:connector-curvature="0" /></svg>