<?xml version="1.0" encoding="UTF-8" standalone="no"?>
<!-- Created with Inkscape (http://www.inkscape.org/) -->

<svg
   xmlns:dc="http://purl.org/dc/elements/1.1/"
   xmlns:cc="http://creativecommons.org/ns#"
   xmlns:rdf="http://www.w3.org/1999/02/22-rdf-syntax-ns#"
   xmlns:svg="http://www.w3.org/2000/svg"
   xmlns="http://www.w3.org/2000/svg"
   xmlns:sodipodi="http://sodipodi.sourceforge.net/DTD/sodipodi-0.dtd"
   xmlns:inkscape="http://www.inkscape.org/namespaces/inkscape"
   width="16.97323mm"
   height="16.97323mm"
   viewBox="0 0 60.141368 60.141368"
   id="svg7868"
   version="1.1"
   inkscape:version="0.91 r13725"
   sodipodi:docname="d-house.svg">
  <defs
     id="defs7870" />
  <sodipodi:namedview
     id="base"
     pagecolor="#ffffff"
     bordercolor="#666666"
     borderopacity="1.0"
     inkscape:pageopacity="0.0"
     inkscape:pageshadow="2"
     inkscape:zoom="11.2"
     inkscape:cx="55.66017"
     inkscape:cy="31.426505"
     inkscape:document-units="px"
     inkscape:current-layer="layer1"
     showgrid="false"
     fit-margin-top="0"
     fit-margin-left="0"
     fit-margin-right="0"
     fit-margin-bottom="0"
     inkscape:window-width="1600"
     inkscape:window-height="837"
     inkscape:window-x="-8"
     inkscape:window-y="-8"
     inkscape:window-maximized="1" />
  <metadata
     id="metadata7873">
    <rdf:RDF>
      <cc:Work
         rdf:about="">
        <dc:format>image/svg+xml</dc:format>
        <dc:type
           rdf:resource="http://purl.org/dc/dcmitype/StillImage" />
        <dc:title />
      </cc:Work>
    </rdf:RDF>
  </metadata>
  <g
     inkscape:label="Layer 1"
     inkscape:groupmode="layer"
     id="layer1"
     transform="translate(263.49889,-557.21613)">
    <g
       inkscape:export-ydpi="90.004784"
       inkscape:export-xdpi="90.004784"
       style="color:#000000;clip-rule:nonzero;display:inline;overflow:visible;visibility:visible;opacity:1;isolation:auto;mix-blend-mode:normal;color-interpolation:sRGB;color-interpolation-filters:linearRGB;solid-color:#000000;solid-opacity:1;fill:#004488;fill-opacity:1;fill-rule:nonzero;stroke:none;stroke-width:1.5;stroke-linecap:round;stroke-linejoin:round;stroke-miterlimit:4;stroke-dasharray:none;stroke-dashoffset:0;stroke-opacity:1;color-rendering:auto;image-rendering:auto;shape-rendering:auto;text-rendering:auto;enable-background:accumulate"
       transform="matrix(1.8669205,0,0,1.8669205,-442.08279,988.03721)"
       id="g6919">
      <path
         sodipodi:nodetypes="ccccccccccccccccccc"
         style="color:#000000;clip-rule:nonzero;display:inline;overflow:visible;visibility:visible;isolation:auto;mix-blend-mode:normal;color-interpolation:sRGB;color-interpolation-filters:linearRGB;solid-color:#000000;solid-opacity:1;fill:#004488;fill-opacity:1;fill-rule:nonzero;stroke:none;stroke-width:1.5;stroke-linecap:round;stroke-linejoin:round;stroke-miterlimit:4;stroke-dasharray:none;stroke-dashoffset:0;stroke-opacity:1;color-rendering:auto;image-rendering:auto;shape-rendering:auto;text-rendering:auto;enable-background:accumulate"
         inkscape:connector-curvature="0"
         d="m 99.462396,-216.05774 -2.733698,0 15.035342,-11.63064 15.03534,11.63064 -2.7337,0 0,14.93644 -24.603284,0 0,-14.93644 z m 24.603284,-3.61292 0,-7.32187 -4.10054,0 0,4.10055 z m -16.40219,18.54936 8.2011,0 0,-10.16489 -8.2011,0 z"
         id="path6921" />
    </g>
    <path
       style="fill:#000000"
       d="m 7.1780277,41.35911 0,-13.92718 -2.5055999,-0.02371 -2.5055998,-0.02371 13.91185,-10.758929 c 7.651517,-5.917411 13.956408,-10.7542921 14.01087,-10.7486255 0.05446,0.00567 6.351466,4.8471845 13.993346,10.7589285 l 13.894324,10.748626 -2.497809,0.02371 -2.49781,0.02371 0,13.92718 0,13.927181 -7.589286,0 -7.589285,0 0,-9.464286 0,-9.464285 -7.723215,0 -7.723214,0 0,9.464285 0,9.464286 -7.589286,0 -7.5892853,0 0,-13.927181 z"
       id="path3335"
       inkscape:connector-curvature="0"
       transform="translate(-263.49889,557.21613)" />
    <path
       style="fill:#000000"
       d="m 49.150614,17.601572 -3.758301,-2.952577 0,-3.788495 0,-3.7884943 3.794643,0 3.794643,0 0,6.7410713 c 0,3.707589 -0.01635,6.741071 -0.03634,6.741071 -0.01999,0 -1.727577,-1.328659 -3.794643,-2.952576 z"
       id="path3337"
       inkscape:connector-curvature="0"
       transform="translate(-263.49889,557.21613)" />
  </g>
</svg>
